<?xml version="1.0" encoding="UTF-8"?>
<svg xmlns="http://www.w3.org/2000/svg" id="Livello_1" viewBox="0 0 30 30">
  <defs>
    <style>.cls-1{stroke-width:.03px;}.cls-1,.cls-2,.cls-3,.cls-4,.cls-5,.cls-6{fill:none;stroke:#3c3c3b;}.cls-1,.cls-2,.cls-3,.cls-6{stroke-miterlimit:10;}.cls-2{stroke-width:.11px;}.cls-3{stroke-width:.03px;}.cls-4{stroke-linecap:round;}.cls-4,.cls-5{stroke-linejoin:round;}.cls-4,.cls-5,.cls-6{stroke-width:.08px;}</style>
  </defs>
  <path class="cls-2" d="m29.78,14.97c0,8.15-6.62,14.75-14.78,14.75S.22,23.11.22,14.97,6.84.22,15,.22s14.78,6.6,14.78,14.75"></path>
  <line class="cls-4" x1="11.07" y1="9.36" x2="13.93" y2="14.39"></line>
  <path class="cls-6" d="m14.04,29.75v-15.29m1.68,15.29v-13.98l12.33,6.21M11.07,9.29v19.95"></path>
  <polyline class="cls-5" points="15.58 29.78 15.58 15.75 14.06 14.52 28.23 21.67"></polyline>
  <path class="cls-6" d="m29.74,16.44L11.96,7.64m17.79,8.6L12.05,7.5l-.1.28"></path>
  <path class="cls-5" d="m15.54,15.66l.16.08m14.03.85L11.94,7.78c.04.91-.91,1.55-.91,1.55l18.36,9.1"></path>
  <path class="cls-3" d="m11.43,8.94l18.1,9.02M11.47,8.87l18.07,9M11.33,9.09l18.16,9.04M11.38,9.01l18.14,9.03M11.12,9.23l18.32,9.13M11.22,9.13l18.25,9.09"></path>
  <path class="cls-1" d="m13.95,14.36l.04,15.41m-.17-15.63l.04,15.62m-.17-15.84l.04,15.84m-.17-16.07l.04,16.05m-.17-16.28l.04,16.26m-.16-16.48l.05,16.47m-.18-16.69l.05,16.68m-.2-16.94l.07,16.91m-.21-17.15l.07,17.13m-.19-17.35l.07,17.35m-.2-17.57l.07,17.54m-.19-17.77l.07,17.73m-.2-17.95l.07,17.93m-.19-18.16l.07,18.13m-.22-18.38l.08,18.34m-.21-18.57l.08,18.54m-.2-18.76l.08,18.77m-.22-19.01l.08,18.93m-.2-19.16l.08,19.12m-.21-19.35l.08,19.34m-.21-19.57l.09,19.54m-.22-19.76l.07,19.72m2.7-14.94l14.36,7.16m-14.49-7.39l14.56,7.25m-14.69-7.48l14.75,7.35m-14.88-7.57l14.94,7.44m-15.08-7.67l15.13,7.54m-15.26-7.76l15.32,7.64m-15.45-7.87l15.5,7.73m-15.65-7.99l15.71,7.85m-15.85-8.08l15.9,7.95M12.74,12.3l16.09,8.05M12.62,12.08l16.27,8.13M12.5,11.85l16.44,8.22M12.37,11.63l16.62,8.31M12.24,11.4l16.8,8.4M12.1,11.16l16.98,8.5M11.97,10.94l17.16,8.59M11.84,10.71l17.33,8.67M11.7,10.48l17.51,8.76M11.57,10.26l17.68,8.84M11.44,10.03l17.85,8.93M11.31,9.8l18.02,9.03M11.19,9.58l18.19,9.08"></path>
  <path class="cls-3" d="m11.89,8.13l17.8,8.86M11.93,7.91l17.8,8.86M11.91,8.03l17.8,8.86M11.82,8.32l17.84,8.88M11.87,8.22l17.81,8.87M11.76,8.51l17.86,8.89M11.79,8.41l17.86,8.89M11.66,8.68l17.92,8.92M11.69,8.59l17.92,8.92M11.57,8.82l17.99,8.96M11.59,8.74l17.99,8.96"></path>
</svg>
