<svg xmlns="http://www.w3.org/2000/svg" width="213" height="28" fill="none" viewBox="0 0 213 28" style="translate: none; rotate: none; scale: none; transform: translate(0px, 0px);"><path fill="#fff" d="M17.652 27.553h6.102V0h-6.298v10.843h-.098c-1.892-1.786-4.078-2.647-7.21-2.647C2.74 8.196 0 12.82 0 18.05 0 23.216 2.708 28 10.148 28c2.969 0 5.546-.733 7.406-2.551h.098v2.104ZM6.591 18.05c0-2.52 1.142-6.027 5.22-6.027 4.046 0 5.645 3.38 5.645 6.027 0 2.679-1.37 6.123-5.546 6.123-4.144 0-5.319-3.508-5.319-6.123ZM32.432 17.636c0-2.839 1.958-5.613 6.037-5.613 4.143 0 6.101 2.71 6.101 5.613 0 3.157-1.272 6.537-6.101 6.537-4.764 0-6.037-3.412-6.037-6.537Zm-6.59.605c0 5.422 4.633 9.759 12.627 9.759 8.026 0 12.66-4.337 12.66-9.759 0-6.25-5.482-10.013-12.66-10.013C31.356 8.196 25.84 11.99 25.84 18.24ZM53.38 5.198h6.298V.478h-6.297v4.72Zm0 22.356h6.298V8.643h-6.297v18.91ZM61.505 27.554h6.297v-9.185c0-2.455.522-6.346 4.699-6.346 3.621 0 3.621 2.488 3.621 4.274v11.289h6.298v-9.217c0-2.455.522-6.346 4.698-6.346 3.622 0 3.622 2.488 3.622 4.274v11.289h6.232v-11.96c0-4.209-1.696-7.43-7.635-7.43-2.97 0-6.101 1.053-7.537 3.349-1.37-2.36-3.752-3.349-7.146-3.349-2.349 0-5.22.766-7.178 3.094h-.098V8.643h-5.873v18.91ZM105.032 17.636c0-2.839 1.957-5.613 6.036-5.613 4.111 0 6.101 2.71 6.101 5.613 0 3.157-1.272 6.537-6.101 6.537-4.764 0-6.036-3.412-6.036-6.537Zm-6.559.605c0 5.422 4.633 9.759 12.627 9.759 8.027 0 12.66-4.337 12.66-9.759 0-6.25-5.481-10.013-12.66-10.013-7.145-.032-12.627 3.763-12.627 10.013ZM140.075 9.121a13.628 13.628 0 0 0-4.47-.733c-5.481 0-9.168 4.05-9.168 9.79 0 5.23 2.903 9.822 8.875 9.822 1.729 0 3.197-.095 4.763-.67l-.228-2.168c-1.37.51-2.741.83-4.177.83-4.176 0-6.721-3.572-6.721-7.814 0-4.56 2.512-7.813 6.982-7.813 1.24 0 2.741.415 3.949.957l.195-2.2ZM156.617 8.834h-2.284v10.364c0 3.126-1.305 6.825-5.482 6.825-3.165 0-4.404-2.264-4.404-5.804V8.834h-2.284v11.959c0 4.114 1.729 7.207 6.33 7.207 3.85 0 5.22-2.105 6.003-3.795h.065v3.349h2.219c-.13-1.5-.13-2.966-.13-4.401V8.834h-.033ZM172.801 9.121a13.628 13.628 0 0 0-4.47-.733c-5.482 0-9.169 4.05-9.169 9.79 0 5.23 2.904 9.822 8.875 9.822 1.73 0 3.198-.095 4.764-.67l-.228-2.168c-1.371.51-2.741.83-4.177.83-4.176 0-6.721-3.572-6.721-7.814 0-4.56 2.512-7.813 6.982-7.813 1.24 0 2.741.415 3.948.957l.196-2.2ZM177.174.733h-2.284v3.094h2.284V.733Zm-2.317 26.82h2.284V8.833h-2.284v18.72ZM181.121 27.554h2.284V17.19c0-3.126 1.306-6.825 5.482-6.825 3.165 0 4.405 2.264 4.405 5.804v11.385h2.284V15.595c0-4.114-1.729-7.207-6.33-7.207-3.85 0-5.221 2.104-6.004 3.795h-.065V8.834h-2.219c.131 1.499.131 2.966.131 4.401v14.319h.032ZM200.274 16.87c0-3.093 2.089-6.505 5.449-6.505 3.426 0 4.732 3.22 4.732 6.506h-10.181Zm11.323 7.75c-1.077.702-3.524 1.403-5.188 1.403-4.014 0-6.102-3.189-6.102-7.175H213v-1.18c0-5.039-2.154-9.28-7.374-9.28-4.699 0-7.831 4.082-7.831 9.79 0 5.613 2.284 9.822 8.418 9.822 1.697 0 3.785-.35 5.384-1.02v-2.36Z"></path></svg>